<svg width="175" height="374" viewBox="0 0 175 374" fill="none" xmlns="http://www.w3.org/2000/svg">
<path fill-rule="evenodd" clip-rule="evenodd" d="M0 0H175V374H0V181.072L120.38 88.3276C114.374 98.1176 109.9 108.328 107.084 118.559C100.263 143.339 103.125 168.534 117.983 187.819L125.169 182.283C112.433 165.752 109.58 143.67 115.83 120.967C122.07 98.2993 137.343 75.3044 160.347 57.5443L160.462 57.4554L160.462 57.4554L154.926 50.2693L154.926 50.2692L154.917 50.2763L154.913 50.2712L153.835 51.1012C131.035 68.3204 105.31 76.9787 82.1315 77.2271C58.5854 77.4795 37.9607 69.0887 25.2252 52.5583L18.0391 58.0947C32.8971 77.3802 56.5293 86.5737 82.2288 86.2982C92.8288 86.1846 103.83 84.4661 114.817 81.1623L0 169.621V0ZM45.716 250.076C43.556 247.772 39.848 246.224 36.212 246.224C29.444 246.224 24.44 251.516 24.44 259.472C24.44 267.428 29.444 272.72 36.932 272.72C40.64 272.72 43.772 271.388 45.968 269.084C43.988 269.84 42.08 270.2 40.28 270.2C35.276 270.2 31.28 267.32 29.516 261.92C27.284 255.152 28.76 249.68 33.224 248.204C33.908 247.988 34.628 247.88 35.384 247.88C39.416 247.88 43.736 251.336 46.652 257.168L45.716 250.076ZM60.9252 254.864C63.3012 254.864 64.8852 256.592 64.8852 259.184V261.164L60.3852 262.208C55.7772 263.252 52.6812 265.736 52.6812 268.4C52.6812 270.884 54.8052 272.576 58.0092 272.576L64.8852 268.364V272.576L71.7972 269.228L69.2052 268.508V259.184C69.2052 255.728 66.2892 253.424 61.9332 253.424L55.9212 255.8C54.7692 256.268 54.1212 256.988 54.1212 257.636C54.0852 258.572 54.8412 259.292 55.8492 259.292C56.7492 259.292 57.8652 258.752 58.8732 257.348L60.9252 254.864ZM59.4852 270.308C58.1172 270.308 57.1812 269.084 57.1812 267.464C57.1812 265.304 59.6292 263.468 63.3012 262.604L64.8852 262.244V267.068L59.4852 270.308ZM82.5834 241.904L75.6714 245.72L78.2634 246.44V270.38L76.5354 272H84.3114L82.5834 270.38V241.904ZM95.8162 241.904L88.9042 245.72L91.4962 246.44V270.38L89.7682 272H97.5442L95.8162 270.38V241.904ZM38.552 309.204V315.576L45.464 312.228L42.872 311.508V296.424L35.96 300.24L38.552 300.96V307.584L33.8 313.164C31.928 313.164 30.704 311.688 30.704 309.492V296.424L23.792 300.24L26.384 300.96V310.428C26.384 313.524 28.904 315.576 32.72 315.576L38.552 309.204ZM58.0204 296.424C53.7724 296.424 51.0364 298.476 51.0364 301.608C51.0364 304.39 53.9215 305.709 56.6791 306.971C59.2032 308.125 61.6204 309.231 61.6204 311.364C61.6204 313.128 60.0364 314.352 57.6604 314.352C55.2484 314.352 52.5124 311.688 50.6764 307.692L51.5044 313.38C53.0884 314.712 56.1484 315.576 59.1364 315.576C63.4204 315.576 66.2644 313.308 66.2644 310.032C66.2644 306.623 63.1185 305.336 60.2511 304.162C57.8501 303.18 55.6444 302.278 55.6444 300.276C55.6444 298.656 57.0844 297.648 59.2084 297.648C61.8724 297.648 64.4644 299.916 65.9044 303.3L65.2924 298.512C63.6364 297.252 60.6484 296.424 58.0204 296.424Z" fill="#743600"/>
</svg>
