<svg width="72" height="71" viewBox="0 0 72 71" fill="none" xmlns="http://www.w3.org/2000/svg">
<path fill-rule="evenodd" clip-rule="evenodd" d="M63.184 63.32C63.184 66.488 65.2 68.984 68.272 69.752L71.248 70.52V71H45.136V70.52L48.112 69.752C51.184 68.984 53.2 66.488 53.2 63.32V8.31199C53.2 5.23999 51.184 2.648 48.112 1.976L45.136 1.112V0.631996H71.248V1.112L68.272 1.976C65.2 2.648 63.184 5.23999 63.184 8.31199V63.32ZM23.92 1.976C20.848 2.648 18.928 5.23999 18.928 8.31199V35.48C18.9516 35.4505 18.9756 35.4212 19 35.392V37.5658C18.9524 37.8505 18.928 38.1478 18.928 38.456V63.32C18.928 66.488 20.848 68.984 23.92 69.752L26.896 70.52V71H0.784V70.52L3.76 69.752C6.832 68.984 8.848 66.488 8.848 63.32V8.31199C8.848 5.23999 6.832 2.648 3.76 1.976L0.784 1.112V0.631996H26.896V1.112L23.92 1.976Z" fill="#402E32"/>
</svg>
