<svg width="30" height="31" viewBox="0 0 30 31" fill="none" xmlns="http://www.w3.org/2000/svg">
<path fill-rule="evenodd" clip-rule="evenodd" d="M8.81591 0.59C10.4155 0.516364 10.9255 0.5 15 0.5C19.0745 0.5 19.5845 0.517727 21.1827 0.59C22.7809 0.662273 23.8718 0.917273 24.8264 1.28682C25.8259 1.66455 26.7327 2.255 27.4827 3.01864C28.2464 3.76727 28.8355 4.67273 29.2118 5.67364C29.5827 6.62818 29.8364 7.71909 29.91 9.31455C29.9836 10.9168 30 11.4268 30 15.5C30 19.5745 29.9823 20.0845 29.91 21.6841C29.8377 23.2795 29.5827 24.3705 29.2118 25.325C28.8354 26.326 28.2454 27.233 27.4827 27.9827C26.7327 28.7464 25.8259 29.3355 24.8264 29.7118C23.8718 30.0827 22.7809 30.3364 21.1855 30.41C19.5845 30.4836 19.0745 30.5 15 30.5C10.9255 30.5 10.4155 30.4823 8.81591 30.41C7.22045 30.3377 6.12955 30.0827 5.175 29.7118C4.17398 29.3354 3.26703 28.7453 2.51727 27.9827C1.75415 27.2336 1.16361 26.3271 0.786818 25.3264C0.417273 24.3718 0.163636 23.2809 0.09 21.6855C0.0163636 20.0832 0 19.5732 0 15.5C0 11.4255 0.0177273 10.9155 0.09 9.31727C0.162273 7.71909 0.417273 6.62818 0.786818 5.67364C1.16417 4.67284 1.75516 3.76634 2.51864 3.01727C3.26733 2.25432 4.17337 1.66379 5.17364 1.28682C6.12818 0.917273 7.21909 0.663636 8.81455 0.59H8.81591ZM21.0614 3.29C19.4795 3.21773 19.005 3.20273 15 3.20273C10.995 3.20273 10.5205 3.21773 8.93864 3.29C7.47545 3.35682 6.68182 3.60091 6.15273 3.80682C5.45318 4.07955 4.95273 4.40273 4.42773 4.92773C3.93006 5.41189 3.54706 6.00129 3.30682 6.65273C3.10091 7.18182 2.85682 7.97545 2.79 9.43864C2.71773 11.0205 2.70273 11.495 2.70273 15.5C2.70273 19.505 2.71773 19.9795 2.79 21.5614C2.85682 23.0245 3.10091 23.8182 3.30682 24.3473C3.54682 24.9977 3.93 25.5882 4.42773 26.0723C4.91182 26.57 5.50227 26.9532 6.15273 27.1932C6.68182 27.3991 7.47545 27.6432 8.93864 27.71C10.5205 27.7823 10.9936 27.7973 15 27.7973C19.0064 27.7973 19.4795 27.7823 21.0614 27.71C22.5245 27.6432 23.3182 27.3991 23.8473 27.1932C24.5468 26.9205 25.0473 26.5973 25.5723 26.0723C26.07 25.5882 26.4532 24.9977 26.6932 24.3473C26.8991 23.8182 27.1432 23.0245 27.21 21.5614C27.2823 19.9795 27.2973 19.505 27.2973 15.5C27.2973 11.495 27.2823 11.0205 27.21 9.43864C27.1432 7.97545 26.8991 7.18182 26.6932 6.65273C26.4205 5.95318 26.0973 5.45273 25.5723 4.92773C25.0881 4.4301 24.4987 4.04711 23.8473 3.80682C23.3182 3.60091 22.5245 3.35682 21.0614 3.29ZM13.0841 20.1241C14.1541 20.5695 15.3455 20.6296 16.4549 20.2942C17.5643 19.9587 18.5228 19.2485 19.1667 18.2849C19.8107 17.3212 20.1001 16.1639 19.9855 15.0106C19.871 13.8573 19.3596 12.7795 18.5386 11.9614C18.0153 11.4384 17.3826 11.0379 16.6859 10.7888C15.9893 10.5397 15.246 10.4482 14.5098 10.5208C13.7735 10.5935 13.0625 10.8284 12.4279 11.2088C11.7933 11.5892 11.251 12.1056 10.84 12.7207C10.4289 13.3359 10.1593 14.0345 10.0507 14.7663C9.94206 15.4981 9.99702 16.2449 10.2116 16.953C10.4263 17.661 10.7952 18.3127 11.2919 18.861C11.7886 19.4093 12.4007 19.8407 13.0841 20.1241ZM9.54818 10.0482C10.2641 9.33224 11.1141 8.76432 12.0495 8.37686C12.9849 7.98939 13.9875 7.78996 15 7.78996C16.0125 7.78996 17.0151 7.98939 17.9505 8.37686C18.8859 8.76432 19.7359 9.33224 20.4518 10.0482C21.1678 10.7641 21.7357 11.6141 22.1231 12.5495C22.5106 13.4849 22.71 14.4875 22.71 15.5C22.71 16.5125 22.5106 17.5151 22.1231 18.4505C21.7357 19.3859 21.1678 20.2359 20.4518 20.9518C19.0059 22.3977 17.0448 23.21 15 23.21C12.9552 23.21 10.9941 22.3977 9.54818 20.9518C8.10227 19.5059 7.28997 17.5448 7.28997 15.5C7.28997 13.4552 8.10227 11.4941 9.54818 10.0482ZM24.42 8.93818C24.5974 8.77082 24.7394 8.56956 24.8377 8.34633C24.9359 8.12309 24.9884 7.88241 24.9919 7.63854C24.9955 7.39467 24.9501 7.15257 24.8584 6.92656C24.7667 6.70055 24.6306 6.49524 24.4581 6.32278C24.2857 6.15032 24.0804 6.01421 23.8544 5.92252C23.6283 5.83083 23.3862 5.78542 23.1424 5.78898C22.8985 5.79253 22.6578 5.84498 22.4346 5.94322C22.2113 6.04146 22.0101 6.18349 21.8427 6.36091C21.5172 6.70595 21.339 7.16426 21.346 7.63854C21.3529 8.11283 21.5444 8.56574 21.8798 8.90115C22.2152 9.23656 22.6681 9.42804 23.1424 9.43495C23.6167 9.44187 24.075 9.26367 24.42 8.93818Z" fill="#743600"/>
</svg>
