<svg width="77" height="112" viewBox="0 0 77 112" fill="none" xmlns="http://www.w3.org/2000/svg">
<path d="M70.272 83.752C67.2 82.984 65.184 80.488 65.184 77.32V22.312C65.184 19.24 67.2 16.648 70.272 15.976L73.248 15.112V14.632H47.136V15.112L50.112 15.976C53.184 16.648 55.2 19.24 55.2 22.312V77.32C55.2 80.488 53.184 82.984 50.112 83.752L47.136 84.52V85H73.248V84.52L70.272 83.752ZM20.928 22.312C20.928 19.24 22.848 16.648 25.92 15.976L28.896 15.112V14.632H2.784V15.112L5.76 15.976C8.832 16.648 10.848 19.24 10.848 22.312V77.32C10.848 80.488 8.832 82.984 5.76 83.752L2.784 84.52V85H28.896V84.52L25.92 83.752C22.848 82.984 20.928 80.488 20.928 77.32V52.456C20.928 49.864 22.656 48.04 25.344 48.04C31.008 48.04 36 57.544 45.888 57.544C51.648 57.544 54.816 54.472 54.816 50.248C54.816 47.176 53.184 44.776 50.016 43.624C49.824 49.864 45.984 52.552 41.76 52.552C35.904 52.552 32.064 46.984 26.496 46.984C24.192 46.984 22.08 48.04 20.928 49.48V22.312Z" fill="#402E32"/>
<rect x="21" y="43" width="34" height="21" fill="#AD8A67"/>
</svg>
