<svg width="62" height="44" viewBox="0 0 62 44" fill="none" xmlns="http://www.w3.org/2000/svg">
<path d="M0 3.0845C0 1.3795 1.3826 0 3.0845 0H27.9155C28.7336 2.43801e-08 29.5181 0.324973 30.0966 0.903429C30.675 1.48188 31 2.26644 31 3.0845C31 3.90256 30.675 4.68712 30.0966 5.26557C29.5181 5.84403 28.7336 6.169 27.9155 6.169H3.0845C2.26644 6.169 1.48189 5.84403 0.903429 5.26557C0.324973 4.68712 0 3.90256 0 3.0845ZM0 21.7C0 19.995 1.3826 18.6155 3.0845 18.6155H58.9155C59.7336 18.6155 60.5181 18.9405 61.0966 19.5189C61.675 20.0974 62 20.8819 62 21.7C62 22.5181 61.675 23.3026 61.0966 23.8811C60.5181 24.4595 59.7336 24.7845 58.9155 24.7845H3.0845C2.26644 24.7845 1.48189 24.4595 0.903429 23.8811C0.324973 23.3026 0 22.5181 0 21.7ZM3.0845 37.231C2.26644 37.231 1.48189 37.556 0.903429 38.1344C0.324973 38.7129 0 39.4974 0 40.3155C0 41.1336 0.324973 41.9181 0.903429 42.4966C1.48189 43.075 2.26644 43.4 3.0845 43.4H40.3155C41.1336 43.4 41.9181 43.075 42.4966 42.4966C43.075 41.9181 43.4 41.1336 43.4 40.3155C43.4 39.4974 43.075 38.7129 42.4966 38.1344C41.9181 37.556 41.1336 37.231 40.3155 37.231H3.0845Z" fill="#402E32"/>
</svg>
